<?xml version="1.0" standalone="no"?>
<!DOCTYPE svg PUBLIC "-//W3C//DTD SVG 20010904//EN"
 "http://www.w3.org/TR/2001/REC-SVG-20010904/DTD/svg10.dtd">
<svg version="1.0" xmlns="http://www.w3.org/2000/svg"
 width="512.000000pt" height="512.000000pt" viewBox="0 0 512.000000 512.000000"
 preserveAspectRatio="xMidYMid meet">

<g transform="translate(0.000000,512.000000) scale(0.100000,-0.100000)"
fill="#000000" stroke="none">
<path d="M1428 4400 c-186 -33 -379 -150 -501 -303 -274 -342 -235 -838 88
-1135 64 -58 176 -132 223 -146 12 -4 22 -11 22 -17 0 -5 -25 -41 -55 -80
-127 -165 -203 -353 -212 -524 -9 -168 35 -298 146 -438 92 -116 194 -191 454
-337 42 -24 74 -47 70 -50 -5 -4 -30 -15 -58 -25 -79 -28 -255 -121 -316 -168
-161 -121 -193 -172 -41 -64 50 36 131 85 180 111 91 47 262 116 287 116 8 0
26 -10 41 -23 l27 -23 -79 -28 c-140 -49 -299 -141 -403 -232 -51 -46 -135
-143 -128 -150 1 -2 34 26 72 62 118 112 278 207 467 280 104 40 118 41 155
10 l28 -24 -30 -12 c-178 -68 -231 -94 -345 -167 -98 -65 -201 -160 -255 -238
-40 -58 -42 -89 -3 -39 118 152 340 301 595 399 l73 28 52 -38 c93 -66 271
-180 338 -217 177 -96 307 -99 485 -13 92 44 228 129 348 217 l67 50 78 -31
c113 -46 258 -121 343 -177 72 -48 221 -185 252 -233 9 -14 19 -22 22 -20 10
11 -73 125 -138 190 -36 36 -111 94 -167 129 -96 60 -308 160 -339 160 -10 0
-5 11 14 30 16 17 37 30 47 30 26 0 178 -60 267 -105 125 -63 206 -118 299
-207 29 -28 55 -48 59 -45 9 10 -83 109 -158 168 -85 68 -225 147 -331 186
-83 30 -97 49 -54 73 22 11 33 10 88 -10 150 -54 397 -191 475 -263 13 -11 25
-18 28 -15 9 9 -102 105 -182 159 -72 49 -205 118 -293 152 -27 10 -40 20 -35
26 6 5 70 44 144 86 208 119 314 205 396 320 100 140 129 236 123 405 -3 100
-9 128 -40 218 -37 107 -98 218 -179 324 -27 35 -48 68 -49 73 0 6 21 21 46
35 204 108 363 318 421 555 24 102 21 286 -6 390 -75 282 -294 507 -581 597
-65 20 -96 23 -225 23 -175 0 -232 -13 -370 -80 -106 -52 -197 -124 -278 -220
-58 -69 -141 -221 -153 -280 l-6 -30 -179 0 c-128 0 -179 3 -179 11 0 7 -13
44 -29 84 -98 240 -292 415 -547 491 -77 23 -293 34 -376 19z m338 -101 c79
-21 234 -93 234 -110 0 -5 6 -9 14 -9 19 0 166 -146 166 -165 0 -8 4 -15 9
-15 13 0 101 -176 101 -200 0 -19 -31 -33 -102 -46 -31 -5 -38 -3 -39 10 -2
25 -3 28 -32 83 -15 29 -27 56 -26 59 0 4 -3 10 -8 13 -5 3 -24 26 -43 51 -75
97 -196 188 -312 233 -69 27 -213 57 -274 57 -33 0 -64 -21 -64 -44 0 -31 26
-44 104 -50 43 -3 84 -10 91 -16 6 -5 15 -7 18 -4 3 3 12 2 19 -2 7 -5 16 -9
21 -10 4 -1 8 -2 10 -3 1 -2 13 -5 27 -7 13 -2 36 -12 50 -22 14 -9 27 -17 30
-17 43 -6 207 -155 235 -214 11 -22 23 -41 26 -41 8 0 53 -109 48 -114 -2 -1
-26 -11 -54 -21 -146 -53 -368 -216 -460 -337 -22 -28 -95 -139 -95 -143 0 -3
-14 -33 -31 -67 -17 -35 -33 -74 -35 -88 -3 -13 -9 -29 -15 -36 -5 -6 -6 -13
-3 -16 3 -3 -1 -22 -10 -41 -8 -19 -12 -38 -9 -41 3 -3 -2 -17 -11 -31 -14
-21 -20 -24 -32 -14 -8 6 -14 9 -14 5 0 -10 -112 49 -139 73 -13 12 -27 21
-31 21 -26 0 -200 208 -200 239 0 6 -4 11 -9 11 -8 0 -25 36 -23 50 0 3 -3 10
-8 15 -4 6 -18 44 -31 85 -19 61 -23 98 -24 195 0 66 4 129 9 140 5 11 11 27
12 35 2 8 5 22 7 30 2 8 7 30 11 48 4 17 12 32 18 32 6 0 9 3 5 6 -6 6 29 83
42 94 3 3 13 19 21 35 19 39 166 186 205 205 17 8 36 21 43 28 13 11 27 15 36
10 2 -2 12 5 23 14 10 10 28 19 39 21 10 2 31 9 45 15 14 5 43 13 64 16 21 4
41 9 44 11 2 3 54 5 116 5 81 0 133 -6 191 -21z m1959 1 c218 -56 399 -206
494 -411 17 -35 32 -73 34 -84 2 -11 10 -40 17 -65 11 -38 17 -193 11 -278 -2
-39 -61 -211 -77 -227 -9 -8 -13 -15 -10 -15 8 0 -57 -94 -97 -140 -16 -19
-51 -52 -76 -73 -25 -20 -52 -42 -59 -48 -7 -5 -42 -26 -78 -46 -46 -24 -69
-32 -73 -24 -4 6 -18 48 -30 94 -13 45 -32 99 -42 119 -11 21 -20 40 -19 43 1
11 -35 74 -86 146 -29 42 -50 80 -46 84 4 4 2 5 -3 3 -6 -2 -33 20 -60 47 -78
78 -129 121 -187 158 -71 45 -198 111 -223 115 -10 1 -30 9 -42 18 -20 13 -22
17 -11 37 12 22 14 28 17 46 0 5 7 16 14 23 6 7 20 29 30 48 10 19 30 49 45
65 40 43 137 125 150 125 6 0 12 5 14 11 2 5 11 11 20 12 9 2 22 8 29 14 13
10 44 22 61 23 4 1 20 7 35 15 14 8 30 12 35 9 5 -3 15 -1 22 5 7 6 49 14 92
17 81 7 104 19 104 56 0 20 -28 38 -62 39 -76 4 -291 -54 -360 -98 -21 -12
-40 -23 -43 -23 -16 0 -134 -105 -180 -161 -32 -38 -84 -128 -91 -155 -3 -13
-10 -24 -16 -24 -5 0 -7 -4 -4 -9 3 -4 0 -15 -7 -24 -11 -14 -18 -15 -70 -2
-33 7 -61 16 -64 19 -8 8 8 66 18 66 5 0 8 3 7 8 -4 11 45 112 54 112 4 0 8 6
8 13 0 17 91 122 140 160 81 65 96 75 155 104 71 36 118 52 170 58 21 3 41 8
44 10 14 14 224 4 296 -15z m-917 -610 c61 -11 123 -25 139 -32 15 -6 39 -13
52 -15 14 -2 34 -9 45 -16 12 -6 24 -11 28 -12 3 0 10 -3 14 -7 4 -5 15 -8 24
-8 21 0 184 -94 240 -139 52 -42 153 -141 144 -141 -4 0 5 -10 20 -21 15 -12
25 -23 23 -26 -3 -2 6 -15 18 -27 20 -20 105 -177 115 -211 1 -5 7 -21 12 -35
5 -14 11 -34 12 -45 1 -11 5 -27 9 -35 4 -8 9 -28 11 -44 3 -16 23 -48 44 -70
77 -82 112 -121 112 -128 0 -4 6 -13 13 -20 35 -37 145 -228 132 -228 -3 0 2
-11 11 -24 8 -14 15 -27 15 -31 -1 -3 6 -31 15 -63 17 -56 23 -179 11 -237
-14 -75 -20 -91 -53 -153 -54 -104 -126 -183 -251 -278 -39 -29 -170 -107
-218 -130 -22 -10 -46 -24 -53 -31 -7 -7 -19 -13 -27 -13 -7 0 -15 -3 -17 -7
-1 -5 -21 -20 -43 -34 -32 -21 -46 -24 -70 -17 -75 21 -350 44 -390 33 -24 -7
-9 -11 85 -21 63 -7 126 -16 140 -20 14 -4 32 -8 40 -8 8 -1 36 -5 62 -10 l47
-8 -28 -24 c-30 -25 -32 -25 -171 -1 -112 20 -180 26 -180 17 0 -5 22 -11 50
-15 27 -4 53 -11 56 -16 3 -5 9 -7 13 -5 4 3 25 0 47 -6 21 -7 42 -12 46 -12
3 -1 9 -4 13 -8 4 -4 13 -4 20 -2 26 11 25 -17 -2 -41 -22 -19 -35 -23 -58
-19 -16 4 -35 10 -41 15 -6 5 -13 7 -15 5 -2 -2 -34 2 -71 9 -38 7 -68 9 -68
5 0 -8 29 -19 65 -25 11 -2 34 -9 50 -16 37 -15 40 -16 62 -18 10 0 -16 -24
-62 -56 -44 -30 -88 -61 -98 -68 -34 -24 -93 -57 -187 -104 -88 -45 -99 -48
-170 -47 -114 0 -144 11 -305 103 -75 44 -245 164 -240 171 4 7 112 38 150 44
10 2 21 8 23 14 4 13 -35 8 -145 -18 l-72 -17 -27 24 c-15 12 -32 23 -37 23
-6 0 -8 3 -5 6 9 8 152 44 157 39 2 -3 9 -1 16 5 6 5 28 11 50 13 21 2 41 9
43 15 2 8 -6 10 -25 7 -15 -2 -75 -12 -133 -21 -145 -23 -142 -23 -172 -5 -34
19 -36 30 -5 33 12 1 29 2 37 3 8 0 21 4 28 9 7 4 16 5 19 2 3 -3 13 -1 23 4
9 5 43 11 76 15 32 3 86 9 119 13 114 15 10 23 -140 11 -174 -14 -173 -14
-181 -22 -13 -12 -67 -7 -83 7 -9 8 -36 25 -61 39 -163 89 -239 132 -265 150
-86 61 -172 135 -216 185 -45 53 -105 155 -113 193 -3 13 -10 40 -16 59 -15
51 -10 195 10 273 26 98 88 221 165 327 57 78 75 99 124 149 40 41 51 64 67
141 7 37 35 122 47 145 6 11 12 26 13 33 4 24 87 154 126 196 90 97 147 150
210 192 62 40 201 112 231 118 7 2 24 8 39 14 44 18 131 42 174 48 21 2 62 9
89 13 99 16 306 12 423 -9z"/>
<path d="M1950 2726 c-230 -49 -412 -203 -472 -399 -16 -55 -19 -85 -15 -150
7 -105 18 -142 69 -217 108 -163 311 -234 518 -181 138 35 304 122 464 244 74
56 81 59 102 46 12 -8 69 -47 125 -87 121 -86 277 -165 369 -188 86 -22 219
-22 292 0 125 38 240 146 289 274 29 76 36 206 16 285 -55 210 -279 369 -542
384 -90 5 -138 -1 -405 -48 -150 -26 -236 -22 -420 16 -151 32 -300 40 -390
21z m1350 -378 c110 -56 113 -73 21 -129 -90 -54 -187 -75 -281 -59 -75 13
-187 63 -204 92 -13 22 5 43 76 85 75 45 148 64 233 58 57 -3 85 -12 155 -47z
m-1027 -6 c34 -17 75 -44 90 -60 l28 -29 -20 -25 c-37 -47 -172 -88 -288 -88
-67 0 -168 38 -218 82 -24 21 -42 44 -39 51 8 21 78 65 139 87 49 17 77 20
152 17 79 -4 102 -9 156 -35z"/>
<path d="M2520 1475 c-41 -7 -77 -11 -79 -9 -2 2 -16 -5 -31 -16 -16 -11 -32
-20 -37 -20 -12 0 -46 -81 -46 -110 1 -48 51 -135 107 -183 90 -76 222 -62
311 35 62 66 75 92 75 145 0 59 -28 108 -72 127 -54 24 -72 29 -89 27 -9 -1
-27 2 -40 7 -14 5 -54 4 -99 -3z m146 -96 c60 -15 81 -46 61 -86 -36 -67 -124
-125 -175 -115 -36 7 -132 106 -132 136 0 34 21 56 59 61 18 2 36 6 39 9 9 10
101 7 148 -5z"/>
</g>
</svg>
